<?xml version="1.0" encoding="UTF-8" standalone="no"?>
<!-- Created with Inkscape (http://www.inkscape.org/) -->

<svg
   xmlns:dc="http://purl.org/dc/elements/1.1/"
   xmlns:cc="http://creativecommons.org/ns#"
   xmlns:rdf="http://www.w3.org/1999/02/22-rdf-syntax-ns#"
   xmlns:svg="http://www.w3.org/2000/svg"
   xmlns="http://www.w3.org/2000/svg"
   xmlns:sodipodi="http://sodipodi.sourceforge.net/DTD/sodipodi-0.dtd"
   xmlns:inkscape="http://www.inkscape.org/namespaces/inkscape"
   width="120"
   height="120"
   viewBox="0 0 120 120"
   id="svg2"
   version="1.1"
   inkscape:version="0.91 r13725"
   sodipodi:docname="icon.svg"
   inkscape:export-filename="C:\_src\GitHub\MiniQuad\arduino\MiniQuad\data\apple-touch-icon.png"
   inkscape:export-xdpi="149"
   inkscape:export-ydpi="149">
  <defs
     id="defs4" />
  <sodipodi:namedview
     id="base"
     pagecolor="#ffffff"
     bordercolor="#666666"
     borderopacity="1.0"
     inkscape:pageopacity="0.0"
     inkscape:pageshadow="2"
     inkscape:zoom="2.825"
     inkscape:cx="55.732559"
     inkscape:cy="57.565351"
     inkscape:document-units="px"
     inkscape:current-layer="layer1"
     showgrid="false"
     units="px"
     inkscape:window-width="1600"
     inkscape:window-height="847"
     inkscape:window-x="-8"
     inkscape:window-y="-8"
     inkscape:window-maximized="1" />
  <metadata
     id="metadata7">
    <rdf:RDF>
      <cc:Work
         rdf:about="">
        <dc:format>image/svg+xml</dc:format>
        <dc:type
           rdf:resource="http://purl.org/dc/dcmitype/StillImage" />
        <dc:title></dc:title>
      </cc:Work>
    </rdf:RDF>
  </metadata>
  <g
     inkscape:label="Calque 1"
     inkscape:groupmode="layer"
     id="layer1"
     transform="translate(0,-932.36216)">
    <rect
       style="opacity:1;fill:#436c8b;fill-opacity:1;stroke:none;stroke-width:1;stroke-linecap:round;stroke-linejoin:round;stroke-miterlimit:4;stroke-dasharray:none;stroke-dashoffset:0;stroke-opacity:1"
       id="rect4147"
       width="120"
       height="120"
       x="0"
       y="932.36218"
       ry="14.867256"
       rx="14.159292" />
    <path
       style="fill:#dcdcdc;fill-opacity:1;fill-rule:evenodd;stroke:none;stroke-width:1px;stroke-linecap:butt;stroke-linejoin:miter;stroke-opacity:1"
       d="m 71.650261,962.09298 11.629535,42.14002 -48.624519,0 11.733866,-42.24047 25.261118,0.10059 z"
       id="path4153"
       inkscape:connector-curvature="0"
       sodipodi:nodetypes="cccccc" />
    <g
       id="g4173"
       transform="translate(-4.8137484,-6.7204465)">
      <path
         d="m 44.558929,1015.5427 a 7.4513278,7.4513278 0 0 1 -8.534678,-6.1712 7.4513278,7.4513278 0 0 1 6.161975,-8.5413 7.4513278,7.4513278 0 0 1 8.548003,6.1527 7.4513278,7.4513278 0 0 1 -6.143491,8.5547"
         sodipodi:open="true"
         sodipodi:end="1.4076587"
         sodipodi:start="1.4119836"
         sodipodi:ry="7.4513278"
         sodipodi:rx="7.4513278"
         sodipodi:cy="1008.1852"
         sodipodi:cx="43.380531"
         sodipodi:type="arc"
         id="path4157"
         style="opacity:1;fill:#000000;fill-opacity:1;stroke:none;stroke-width:1;stroke-linecap:round;stroke-linejoin:round;stroke-miterlimit:4;stroke-dasharray:none;stroke-dashoffset:0;stroke-opacity:1" />
      <rect
         transform="matrix(0.25881905,-0.96592583,0.96592583,0.25881905,0,0)"
         y="281.22067"
         x="-994.00507"
         height="3.9823008"
         width="20.088495"
         id="rect4171"
         style="opacity:1;fill:#dcdcdc;fill-opacity:1;stroke:none;stroke-width:1;stroke-linecap:round;stroke-linejoin:round;stroke-miterlimit:4;stroke-dasharray:none;stroke-dashoffset:0;stroke-opacity:1" />
      <path
         style="opacity:1;fill:#000000;fill-opacity:1;stroke:none;stroke-width:1;stroke-linecap:round;stroke-linejoin:round;stroke-miterlimit:4;stroke-dasharray:none;stroke-dashoffset:0;stroke-opacity:1"
         id="path4167"
         sodipodi:type="arc"
         sodipodi:cx="23.026546"
         sodipodi:cy="1008.1852"
         sodipodi:rx="7.4513278"
         sodipodi:ry="7.4513278"
         sodipodi:start="1.4119836"
         sodipodi:end="1.4076587"
         sodipodi:open="true"
         d="m 24.204944,1015.5427 a 7.4513278,7.4513278 0 0 1 -8.534677,-6.1712 7.4513278,7.4513278 0 0 1 6.161974,-8.5413 7.4513278,7.4513278 0 0 1 8.548003,6.1527 7.4513278,7.4513278 0 0 1 -6.14349,8.5547" />
      <rect
         y="1005.1055"
         x="23.185841"
         height="5.5752211"
         width="20.088495"
         id="rect4161"
         style="opacity:1;fill:#dcdcdc;fill-opacity:1;stroke:none;stroke-width:1;stroke-linecap:round;stroke-linejoin:round;stroke-miterlimit:4;stroke-dasharray:none;stroke-dashoffset:0;stroke-opacity:1" />
    </g>
    <g
       id="g4179"
       transform="matrix(-1,0,0,1,124.81375,-6.7204465)">
      <path
         style="opacity:1;fill:#000000;fill-opacity:1;stroke:none;stroke-width:1;stroke-linecap:round;stroke-linejoin:round;stroke-miterlimit:4;stroke-dasharray:none;stroke-dashoffset:0;stroke-opacity:1"
         id="path4181"
         sodipodi:type="arc"
         sodipodi:cx="43.380531"
         sodipodi:cy="1008.1852"
         sodipodi:rx="7.4513278"
         sodipodi:ry="7.4513278"
         sodipodi:start="1.4119836"
         sodipodi:end="1.4076587"
         sodipodi:open="true"
         d="m 44.558929,1015.5427 a 7.4513278,7.4513278 0 0 1 -8.534678,-6.1712 7.4513278,7.4513278 0 0 1 6.161975,-8.5413 7.4513278,7.4513278 0 0 1 8.548003,6.1527 7.4513278,7.4513278 0 0 1 -6.143491,8.5547" />
      <rect
         style="opacity:1;fill:#dcdcdc;fill-opacity:1;stroke:none;stroke-width:1;stroke-linecap:round;stroke-linejoin:round;stroke-miterlimit:4;stroke-dasharray:none;stroke-dashoffset:0;stroke-opacity:1"
         id="rect4183"
         width="20.088495"
         height="3.9823008"
         x="-994.00507"
         y="281.22067"
         transform="matrix(0.25881905,-0.96592583,0.96592583,0.25881905,0,0)" />
      <path
         d="m 24.204944,1015.5427 a 7.4513278,7.4513278 0 0 1 -8.534677,-6.1712 7.4513278,7.4513278 0 0 1 6.161974,-8.5413 7.4513278,7.4513278 0 0 1 8.548003,6.1527 7.4513278,7.4513278 0 0 1 -6.14349,8.5547"
         sodipodi:open="true"
         sodipodi:end="1.4076587"
         sodipodi:start="1.4119836"
         sodipodi:ry="7.4513278"
         sodipodi:rx="7.4513278"
         sodipodi:cy="1008.1852"
         sodipodi:cx="23.026546"
         sodipodi:type="arc"
         id="path4185"
         style="opacity:1;fill:#000000;fill-opacity:1;stroke:none;stroke-width:1;stroke-linecap:round;stroke-linejoin:round;stroke-miterlimit:4;stroke-dasharray:none;stroke-dashoffset:0;stroke-opacity:1" />
      <rect
         style="opacity:1;fill:#dcdcdc;fill-opacity:1;stroke:none;stroke-width:1;stroke-linecap:round;stroke-linejoin:round;stroke-miterlimit:4;stroke-dasharray:none;stroke-dashoffset:0;stroke-opacity:1"
         id="rect4187"
         width="20.088495"
         height="5.5752211"
         x="23.185841"
         y="1005.1055" />
    </g>
    <g
       transform="matrix(-0.79612108,0,0,0.79612108,108.07852,160.66447)"
       id="g4199">
      <path
         d="m 44.558929,1015.5427 a 7.4513278,7.4513278 0 0 1 -8.534678,-6.1712 7.4513278,7.4513278 0 0 1 6.161975,-8.5413 7.4513278,7.4513278 0 0 1 8.548003,6.1527 7.4513278,7.4513278 0 0 1 -6.143491,8.5547"
         sodipodi:open="true"
         sodipodi:end="1.4076587"
         sodipodi:start="1.4119836"
         sodipodi:ry="7.4513278"
         sodipodi:rx="7.4513278"
         sodipodi:cy="1008.1852"
         sodipodi:cx="43.380531"
         sodipodi:type="arc"
         id="path4201"
         style="opacity:1;fill:#000000;fill-opacity:1;stroke:none;stroke-width:1;stroke-linecap:round;stroke-linejoin:round;stroke-miterlimit:4;stroke-dasharray:none;stroke-dashoffset:0;stroke-opacity:1" />
      <rect
         transform="matrix(0.25881905,-0.96592583,0.96592583,0.25881905,0,0)"
         y="281.22067"
         x="-994.00507"
         height="3.9823008"
         width="20.088495"
         id="rect4203"
         style="opacity:1;fill:#dcdcdc;fill-opacity:1;stroke:none;stroke-width:1;stroke-linecap:round;stroke-linejoin:round;stroke-miterlimit:4;stroke-dasharray:none;stroke-dashoffset:0;stroke-opacity:1" />
      <path
         style="opacity:1;fill:#000000;fill-opacity:1;stroke:none;stroke-width:1;stroke-linecap:round;stroke-linejoin:round;stroke-miterlimit:4;stroke-dasharray:none;stroke-dashoffset:0;stroke-opacity:1"
         id="path4205"
         sodipodi:type="arc"
         sodipodi:cx="23.026546"
         sodipodi:cy="1008.1852"
         sodipodi:rx="7.4513278"
         sodipodi:ry="7.4513278"
         sodipodi:start="1.4119836"
         sodipodi:end="1.4076587"
         sodipodi:open="true"
         d="m 24.204944,1015.5427 a 7.4513278,7.4513278 0 0 1 -8.534677,-6.1712 7.4513278,7.4513278 0 0 1 6.161974,-8.5413 7.4513278,7.4513278 0 0 1 8.548003,6.1527 7.4513278,7.4513278 0 0 1 -6.14349,8.5547" />
      <rect
         y="1005.1055"
         x="23.185841"
         height="5.5752211"
         width="20.088495"
         id="rect4207"
         style="opacity:1;fill:#dcdcdc;fill-opacity:1;stroke:none;stroke-width:1;stroke-linecap:round;stroke-linejoin:round;stroke-miterlimit:4;stroke-dasharray:none;stroke-dashoffset:0;stroke-opacity:1" />
    </g>
    <g
       id="g4189"
       transform="matrix(0.79612108,0,0,0.79612108,10.505549,160.66447)">
      <path
         style="opacity:1;fill:#000000;fill-opacity:1;stroke:none;stroke-width:1;stroke-linecap:round;stroke-linejoin:round;stroke-miterlimit:4;stroke-dasharray:none;stroke-dashoffset:0;stroke-opacity:1"
         id="path4191"
         sodipodi:type="arc"
         sodipodi:cx="43.380531"
         sodipodi:cy="1008.1852"
         sodipodi:rx="7.4513278"
         sodipodi:ry="7.4513278"
         sodipodi:start="1.4119836"
         sodipodi:end="1.4076587"
         sodipodi:open="true"
         d="m 44.558929,1015.5427 a 7.4513278,7.4513278 0 0 1 -8.534678,-6.1712 7.4513278,7.4513278 0 0 1 6.161975,-8.5413 7.4513278,7.4513278 0 0 1 8.548003,6.1527 7.4513278,7.4513278 0 0 1 -6.143491,8.5547" />
      <rect
         style="opacity:1;fill:#dcdcdc;fill-opacity:1;stroke:none;stroke-width:1;stroke-linecap:round;stroke-linejoin:round;stroke-miterlimit:4;stroke-dasharray:none;stroke-dashoffset:0;stroke-opacity:1"
         id="rect4193"
         width="20.088495"
         height="3.9823008"
         x="-994.00507"
         y="281.22067"
         transform="matrix(0.25881905,-0.96592583,0.96592583,0.25881905,0,0)" />
      <path
         d="m 24.204944,1015.5427 a 7.4513278,7.4513278 0 0 1 -8.534677,-6.1712 7.4513278,7.4513278 0 0 1 6.161974,-8.5413 7.4513278,7.4513278 0 0 1 8.548003,6.1527 7.4513278,7.4513278 0 0 1 -6.14349,8.5547"
         sodipodi:open="true"
         sodipodi:end="1.4076587"
         sodipodi:start="1.4119836"
         sodipodi:ry="7.4513278"
         sodipodi:rx="7.4513278"
         sodipodi:cy="1008.1852"
         sodipodi:cx="23.026546"
         sodipodi:type="arc"
         id="path4195"
         style="opacity:1;fill:#000000;fill-opacity:1;stroke:none;stroke-width:1;stroke-linecap:round;stroke-linejoin:round;stroke-miterlimit:4;stroke-dasharray:none;stroke-dashoffset:0;stroke-opacity:1" />
      <rect
         style="opacity:1;fill:#dcdcdc;fill-opacity:1;stroke:none;stroke-width:1;stroke-linecap:round;stroke-linejoin:round;stroke-miterlimit:4;stroke-dasharray:none;stroke-dashoffset:0;stroke-opacity:1"
         id="rect4197"
         width="20.088495"
         height="5.5752211"
         x="23.185841"
         y="1005.1055" />
    </g>
  </g>
</svg>
